# xmcd
#
# Track frame offsets: 
#        150
#        3607
#        16355
#        31305
#        55035
#        75270
#        89495
#        90877
#        110002
#        119770
#        132090
#        142862
#
# Disc length: 2361 seconds
#
# Revision: 0
# Processed by: cddbd v1.5.2PL0 Copyright (c) Steve Scherf et al.
# Submitted via: ExactAudioCopy v0.95b4
#
DISCID=8c09370c
DTITLE=朱宗慶兒童打擊樂集6 - 演奏ㄆ小猴子吱吱叫
DYEAR=2000
DGENRE=Country
TTITLE0=引言(一)
TTITLE1=小猴子吱吱叫
TTITLE2=小蜜蜂
TTITLE3=魚兒水中游
TTITLE4=一隻小鹿
TTITLE5=蟲兒音樂會
TTITLE6=引言(二)
TTITLE7=蟑螂之舞
TTITLE8=母鴨帶小鴨
TTITLE9=小青蛙
TTITLE10=郊遊
TTITLE11=昆蟲組曲
EXTD=
EXTT0=
EXTT1=
EXTT2=
EXTT3=
EXTT4=
EXTT5=
EXTT6=
EXTT7=
EXTT8=
EXTT9=
EXTT10=
EXTT11=
PLAYORDER=
